<svg width="612" height="612" viewBox="0 0 612 612" fill="none" xmlns="http://www.w3.org/2000/svg">
<path fill-rule="evenodd" clip-rule="evenodd" d="M611 306C611 474.447 474.447 611 306 611C137.553 611 1 474.447 1 306C1 137.553 137.553 1 306 1C474.447 1 611 137.553 611 306ZM329.722 72.1667H268.722C236.119 7.94288 219.047 10.4718 190.778 85.7223C157.304 203.996 178.857 250.65 316.167 285.667C355.83 294.545 378.724 312.362 394.111 346.667C402.837 398.671 416.253 417.136 461.889 424.611C483.889 428.115 492.676 433.897 485.611 468.667C437.72 557.578 387.2 555.602 268.722 522.889C217.889 529.667 211.111 566.944 251.778 583.889C402.225 595 461.07 558.786 546.611 461.889C651.667 272.111 553.389 136.556 411.056 85.7223C378.855 8.22887 361.055 7.08679 329.722 72.1667ZM324.585 399.896C314.418 393.119 321.196 382.952 331.363 389.73C341.192 394.716 347.01 395.603 358.474 389.73C369.164 382.65 376.109 392.834 365.251 399.896C346.686 407.553 339.911 406.604 324.585 399.896ZM231.444 448.333C196.37 466.859 173.263 450.012 167.056 431.389C162.553 420.1 159.283 406.665 160.278 390.722C161.758 350.862 189.176 321.285 234.834 289.055C238.222 285.667 231.445 282.278 224.667 285.667C203.657 298.647 187.109 312.693 174.152 327.988C162.167 342.135 150.111 367 146.722 380.556C126.389 495.778 248.389 509.333 272.111 414.444C276.791 357.808 281.453 330.827 302.611 312.778C309.389 306 302.611 302.611 299.222 306C283.213 318.695 274.63 327.013 265.333 360.222C261.093 394 257.304 415.158 248.389 431.389C246.6 434.778 245 438.167 231.444 448.333Z" fill="white"/>
<path d="M222.918 166.063C212.751 159.285 205.974 169.452 216.14 176.23C231.466 182.937 238.242 183.887 256.807 176.23C267.664 169.167 260.719 158.983 250.029 166.063C238.566 171.936 232.747 171.049 222.918 166.063Z" fill="white"/>
<path d="M285.667 184C290.587 182.936 293.5 182.776 299.222 184C306.851 191.06 306.83 194.776 299.222 200.944C294.722 202.051 291.755 202.056 285.667 200.944C278.895 194.142 278.237 190.415 285.667 184Z" fill="white"/>
<path d="M336.5 163.667C326.333 156.889 319.556 167.056 329.722 173.833C345.048 180.541 351.824 181.49 370.389 173.833C381.246 166.771 374.301 156.586 363.611 163.666C352.148 169.539 346.329 168.653 336.5 163.667Z" fill="white"/>
<path d="M278.889 377.165C272.111 407.667 273.601 430.79 255.167 455.11M526.278 489C563.556 441.556 570.333 421.222 583.889 380.556M611 306C611 474.447 474.447 611 306 611C137.553 611 1 474.447 1 306C1 137.553 137.553 1 306 1C474.447 1 611 137.553 611 306ZM268.722 72.1667H329.722C361.055 7.08679 378.855 8.22887 411.056 85.7223C553.389 136.556 651.667 272.111 546.611 461.889C461.07 558.786 402.225 595 251.778 583.889C211.111 566.944 217.889 529.667 268.722 522.889C387.2 555.602 437.72 557.578 485.611 468.667C492.676 433.897 483.889 428.115 461.889 424.611C416.253 417.136 402.837 398.671 394.111 346.667C378.724 312.362 355.83 294.545 316.167 285.667C178.857 250.65 157.304 203.996 190.778 85.7223C219.047 10.4718 236.119 7.94288 268.722 72.1667ZM336.5 163.667C326.333 156.889 319.556 167.056 329.722 173.833C345.048 180.541 351.824 181.49 370.389 173.833C381.246 166.771 374.301 156.586 363.611 163.666C352.148 169.539 346.329 168.653 336.5 163.667ZM222.918 166.063C212.751 159.285 205.974 169.452 216.14 176.23C231.466 182.937 238.242 183.887 256.807 176.23C267.664 169.167 260.719 158.983 250.029 166.063C238.566 171.936 232.747 171.049 222.918 166.063ZM331.363 389.73C321.196 382.952 314.418 393.119 324.585 399.896C339.911 406.604 346.686 407.553 365.251 399.896C376.109 392.834 369.164 382.65 358.474 389.73C347.01 395.603 341.192 394.716 331.363 389.73ZM285.667 184C290.587 182.936 293.5 182.776 299.222 184C306.851 191.06 306.83 194.776 299.222 200.944C294.722 202.051 291.755 202.056 285.667 200.944C278.895 194.142 278.237 190.415 285.667 184ZM167.056 431.389C173.263 450.012 196.37 466.859 231.444 448.333C245 438.167 246.6 434.778 248.389 431.389C257.304 415.158 261.093 394 265.333 360.222C274.63 327.013 283.213 318.695 299.222 306C302.611 302.611 309.389 306 302.611 312.778C281.453 330.827 276.791 357.808 272.111 414.444C248.389 509.333 126.389 495.778 146.722 380.556C150.111 367 162.167 342.135 174.152 327.988C187.109 312.693 203.657 298.647 224.667 285.667C231.445 282.278 238.222 285.667 234.834 289.055C189.176 321.285 161.758 350.862 160.278 390.722C159.283 406.665 162.553 420.1 167.056 431.389Z" stroke="white"/>
</svg>
